# xmcd
# 
# Track frame offsets:
#     150
#     16043
#     28421
#     52988
#     69153
#     85751
#     102416
#     119248
#     133353
#     146386
#     160833
#     176753
#     198288
#     214213
#     229871
#     241787
#     257869
#     268882
#     288674
# 
# Disc length: 4122
# 
# Revision: 7
# Processed by: cddbd v1.5.2PL0 Copyright (c) Steve Scherf et al.
# Submitted via: fre:ac v1.1beta1pre5
# 
DISCID=1f101813
DTITLE=The Cranberries - Bury the Hatchet
DYEAR=2002
DGENRE=Rock
TTITLE0=Animal Instinct
TTITLE1=Loud and Clear
TTITLE2=Promises
TTITLE3=You and Me
TTITLE4=Just My Imagination
TTITLE5=Shattered
TTITLE6=Desperate Andy
TTITLE7=Saving Grace
TTITLE8=Copycat
TTITLE9=What's on My Mind
TTITLE10=Delilah
TTITLE11=Fee Fi Fo
TTITLE12=Dying in the Sun
TTITLE13=Sorry Son
TTITLE14=Baby Blues
TTITLE15=Sweetest Thing
TTITLE16=Woman Without Pride
TTITLE17=Such a Shame
TTITLE18=Paparazzi on Mopeds
EXTD=
EXTT0=
EXTT1=
EXTT2=
EXTT3=
EXTT4=
EXTT5=
EXTT6=
EXTT7=
EXTT8=
EXTT9=
EXTT10=
EXTT11=
EXTT12=
EXTT13=
EXTT14=
EXTT15=
EXTT16=
EXTT17=
EXTT18=
PLAYORDER=
